<svg xmlns="http://www.w3.org/2000/svg" xmlns:xlink="http://www.w3.org/1999/xlink" width="1920" zoomAndPan="magnify" viewBox="0 0 1440 809.999993" height="1080" preserveAspectRatio="xMidYMid meet" version="1.2"><defs><clipPath id="9714e36559"><path d="M 500.6875 476.261719 L 530.136719 476.261719 L 530.136719 505.828125 L 500.6875 505.828125 Z M 500.6875 476.261719 "/></clipPath><clipPath id="449127a7f0"><path d="M 525.699219 495.628906 C 525.152344 497.015625 524.339844 498.238281 523.277344 499.273438 C 522.210938 500.308594 520.898438 501.117188 519.355469 501.695312 C 517.808594 502.273438 516.039062 502.558594 514.042969 502.558594 L 503.972656 502.558594 L 503.972656 479.464844 L 514.050781 479.464844 C 516.046875 479.464844 517.816406 479.757812 519.359375 480.351562 C 520.90625 480.941406 522.210938 481.753906 523.285156 482.796875 C 524.355469 483.839844 525.160156 485.054688 525.707031 486.441406 C 526.253906 487.828125 526.53125 489.359375 526.53125 491.015625 C 526.53125 492.703125 526.261719 494.242188 525.707031 495.628906 M 525.8125 480.539062 C 524.429688 479.203125 522.773438 478.152344 520.839844 477.394531 C 518.902344 476.636719 516.699219 476.261719 514.261719 476.261719 L 500.6875 476.261719 L 500.6875 505.769531 L 514.261719 505.769531 C 516.707031 505.769531 518.894531 505.386719 520.839844 504.628906 C 522.78125 503.871094 524.4375 502.828125 525.8125 501.507812 C 527.183594 500.1875 528.234375 498.636719 528.953125 496.851562 C 529.671875 495.066406 530.027344 493.125 530.027344 491.015625 C 530.027344 488.9375 529.667969 487.003906 528.953125 485.21875 C 528.242188 483.433594 527.191406 481.875 525.8125 480.539062 "/></clipPath><clipPath id="8c8dd6fca1"><path d="M 537.839844 476.195312 L 563.917969 476.195312 L 563.917969 505.8125 L 537.839844 505.8125 Z M 537.839844 476.195312 "/></clipPath><clipPath id="f97f1f16fc"><path d="M 541.1875 479.46875 L 552.0625 479.46875 C 553.300781 479.46875 554.425781 479.722656 555.4375 480.226562 C 556.453125 480.730469 557.253906 481.417969 557.839844 482.289062 C 558.425781 483.160156 558.722656 484.125 558.722656 485.199219 C 558.722656 486.324219 558.4375 487.328125 557.882812 488.214844 C 557.328125 489.097656 556.550781 489.804688 555.566406 490.320312 C 554.585938 490.839844 553.460938 491.101562 552.191406 491.101562 L 541.1875 491.101562 Z M 557.398438 493.105469 C 558.875 492.300781 560.042969 491.222656 560.914062 489.855469 C 561.785156 488.492188 562.21875 486.925781 562.21875 485.15625 C 562.21875 483.46875 561.800781 481.960938 560.953125 480.625 C 560.105469 479.289062 558.988281 478.230469 557.578125 477.445312 C 556.167969 476.65625 554.585938 476.265625 552.8125 476.265625 L 537.902344 476.265625 L 537.902344 505.765625 L 541.1875 505.765625 L 541.1875 494.304688 L 551.585938 494.304688 L 559.738281 505.765625 L 563.777344 505.765625 L 555.339844 493.90625 C 556.0625 493.710938 556.75 493.449219 557.398438 493.097656 "/></clipPath><clipPath id="4df47880a6"><path d="M 569.371094 475.902344 L 603.410156 475.902344 L 603.410156 506.253906 L 569.371094 506.253906 Z M 569.371094 475.902344 "/></clipPath><clipPath id="310e390f89"><path d="M 598.917969 495.796875 C 598.257812 497.246094 597.320312 498.503906 596.113281 499.570312 C 594.902344 500.632812 593.472656 501.46875 591.8125 502.058594 C 590.15625 502.652344 588.339844 502.945312 586.375 502.945312 C 584.410156 502.945312 582.597656 502.652344 580.9375 502.058594 C 579.28125 501.46875 577.855469 500.640625 576.65625 499.570312 C 575.457031 498.496094 574.542969 497.246094 573.898438 495.796875 C 573.25 494.347656 572.929688 492.78125 572.929688 491.09375 C 572.929688 489.375 573.25 487.800781 573.898438 486.355469 C 574.542969 484.90625 575.464844 483.648438 576.65625 482.582031 C 577.847656 481.515625 579.273438 480.675781 580.9375 480.078125 C 582.605469 479.476562 584.410156 479.167969 586.375 479.167969 C 588.339844 479.167969 590.15625 479.46875 591.8125 480.078125 C 593.472656 480.683594 594.902344 481.515625 596.113281 482.582031 C 597.320312 483.648438 598.257812 484.90625 598.917969 486.355469 C 599.578125 487.800781 599.90625 489.382812 599.90625 491.09375 C 599.90625 492.78125 599.578125 494.347656 598.917969 495.796875 M 598.519531 480.285156 C 597.003906 478.921875 595.21875 477.863281 593.164062 477.105469 C 591.109375 476.347656 588.851562 475.96875 586.375 475.96875 C 583.929688 475.96875 581.679688 476.347656 579.632812 477.105469 C 577.585938 477.863281 575.800781 478.9375 574.277344 480.308594 C 572.757812 481.683594 571.585938 483.292969 570.761719 485.132812 C 569.9375 486.96875 569.515625 488.964844 569.515625 491.09375 C 569.515625 493.222656 569.929688 495.21875 570.761719 497.058594 C 571.59375 498.894531 572.765625 500.5 574.277344 501.863281 C 575.792969 503.230469 577.578125 504.285156 579.632812 505.042969 C 581.6875 505.800781 583.929688 506.183594 586.375 506.183594 C 588.851562 506.183594 591.109375 505.800781 593.164062 505.042969 C 595.21875 504.285156 596.996094 503.222656 598.519531 501.863281 C 600.042969 500.507812 601.21875 498.902344 602.058594 497.058594 C 602.898438 495.210938 603.328125 493.230469 603.328125 491.09375 C 603.328125 488.933594 602.90625 486.933594 602.058594 485.085938 C 601.210938 483.242188 600.035156 481.644531 598.519531 480.28125 "/></clipPath><clipPath id="85aea921f0"><path d="M 608.714844 476.046875 L 642.164062 476.046875 L 642.164062 506.253906 L 608.714844 506.253906 Z M 608.714844 476.046875 "/></clipPath><clipPath id="05c61f9900"><path d="M 641.972656 491.523438 L 626.253906 491.523438 L 626.253906 494.722656 L 638.554688 494.722656 L 638.5625 494.898438 C 638.589844 495.960938 638.292969 496.988281 637.675781 497.972656 C 637.0625 498.953125 636.183594 499.816406 635.066406 500.558594 C 633.949219 501.300781 632.621094 501.886719 631.105469 502.308594 C 629.589844 502.726562 627.988281 502.9375 626.300781 502.9375 C 624.355469 502.9375 622.554688 502.667969 620.882812 502.132812 C 619.210938 501.601562 617.726562 500.820312 616.4375 499.792969 C 615.148438 498.765625 614.140625 497.515625 613.421875 496.023438 C 612.703125 494.53125 612.347656 492.871094 612.347656 491.050781 C 612.347656 489.363281 612.695312 487.792969 613.382812 486.347656 C 614.074219 484.898438 615.050781 483.648438 616.316406 482.597656 C 617.585938 481.546875 619.054688 480.722656 620.742188 480.128906 C 622.429688 479.535156 624.242188 479.246094 626.179688 479.246094 C 627.527344 479.246094 628.871094 479.425781 630.207031 479.792969 L 633.957031 481.222656 C 635.117188 481.816406 636.152344 482.492188 637.054688 483.25 L 639.117188 480.847656 C 638.359375 479.980469 637.308594 479.175781 635.972656 478.449219 C 634.640625 477.722656 633.132812 477.136719 631.464844 476.703125 C 629.800781 476.265625 628.015625 476.050781 626.132812 476.050781 C 623.71875 476.050781 621.453125 476.425781 619.347656 477.167969 C 617.238281 477.910156 615.402344 478.960938 613.847656 480.308594 C 612.296875 481.660156 611.066406 483.257812 610.179688 485.09375 C 609.296875 486.933594 608.855469 488.925781 608.855469 491.058594 C 608.855469 493.390625 609.296875 495.488281 610.179688 497.355469 C 611.066406 499.222656 612.304688 500.808594 613.894531 502.097656 C 615.484375 503.386719 617.304688 504.390625 619.375 505.113281 C 621.445312 505.832031 623.679688 506.183594 626.097656 506.183594 C 628.375 506.183594 630.484375 505.882812 632.417969 505.277344 C 634.355469 504.667969 636.054688 503.820312 637.519531 502.726562 C 638.980469 501.632812 640.113281 500.304688 640.910156 498.746094 C 641.703125 497.183594 642.109375 495.472656 642.109375 493.621094 L 642.109375 493.050781 L 642.09375 492.59375 C 642.042969 492.03125 642.011719 491.769531 641.980469 491.515625 "/></clipPath><clipPath id="2da3dc399d"><path d="M 649.554688 476.257812 L 671.6875 476.257812 L 671.6875 479.46875 L 649.554688 479.46875 Z M 649.554688 479.46875 L 652.847656 479.46875 L 652.847656 488.996094 L 649.554688 488.996094 Z M 649.554688 488.996094 L 669.328125 488.996094 L 669.328125 492.195312 L 649.554688 492.195312 Z M 649.554688 492.195312 L 652.847656 492.195312 L 652.847656 502.5625 L 649.554688 502.5625 Z M 649.554688 502.5625 L 671.597656 502.5625 L 671.597656 505.765625 L 649.554688 505.765625 Z M 649.554688 502.5625 "/></clipPath><clipPath id="16e3d24bbd"><path d="M 680.707031 476.261719 L 706.585938 476.261719 L 706.585938 505.78125 L 680.707031 505.78125 Z M 680.707031 476.261719 "/></clipPath><clipPath id="8b5525e89e"><path d="M 683.992188 479.464844 L 694.867188 479.464844 C 696.105469 479.464844 697.230469 479.71875 698.242188 480.222656 C 699.253906 480.726562 700.054688 481.414062 700.640625 482.285156 C 701.226562 483.15625 701.527344 484.125 701.527344 485.195312 C 701.527344 486.320312 701.242188 487.324219 700.6875 488.210938 C 700.132812 489.09375 699.351562 489.800781 698.367188 490.316406 C 697.386719 490.835938 696.261719 491.097656 694.992188 491.097656 L 683.992188 491.097656 Z M 700.199219 493.101562 C 701.675781 492.296875 702.847656 491.21875 703.714844 489.851562 C 704.585938 488.488281 705.019531 486.921875 705.019531 485.152344 C 705.019531 483.464844 704.601562 481.957031 703.753906 480.621094 C 702.90625 479.285156 701.789062 478.226562 700.378906 477.441406 C 698.96875 476.652344 697.402344 476.261719 695.625 476.261719 L 680.707031 476.261719 L 680.707031 505.769531 L 683.992188 505.769531 L 683.992188 494.300781 L 694.386719 494.300781 L 702.539062 505.769531 L 706.582031 505.769531 L 698.144531 493.910156 C 698.863281 493.714844 699.554688 493.453125 700.199219 493.101562 "/></clipPath><clipPath id="a604f494fd"><path d="M 714.339844 476.261719 L 731.410156 476.261719 L 731.410156 479.511719 L 714.339844 479.511719 Z M 721.210938 479.511719 L 724.496094 479.511719 L 724.496094 502.519531 L 721.210938 502.519531 Z M 714.339844 502.519531 L 731.410156 502.519531 L 731.410156 505.765625 L 714.339844 505.765625 Z M 714.339844 502.519531 "/></clipPath><clipPath id="c7ef0f8ea4"><path d="M 741.359375 476.261719 L 763.492188 476.261719 L 763.492188 479.464844 L 741.359375 479.464844 Z M 741.359375 479.464844 L 744.644531 479.464844 L 744.644531 488.988281 L 741.359375 488.988281 Z M 741.359375 488.988281 L 761.128906 488.988281 L 761.128906 492.191406 L 741.359375 492.191406 Z M 741.359375 492.191406 L 744.644531 492.191406 L 744.644531 502.566406 L 741.359375 502.566406 Z M 741.359375 502.566406 L 763.402344 502.566406 L 763.402344 505.765625 L 741.359375 505.765625 Z M 741.359375 502.566406 "/></clipPath><clipPath id="b68df9c4cf"><path d="M 372.574219 304.105469 L 502 304.105469 L 502 428.980469 L 372.574219 428.980469 Z M 372.574219 304.105469 "/></clipPath><clipPath id="c4730d599d"><path d="M 470.074219 378.472656 C 468.53125 382.273438 466.273438 385.648438 463.3125 388.617188 C 460.347656 391.589844 456.574219 393.957031 452.007812 395.738281 C 447.441406 397.515625 442.0625 398.40625 435.898438 398.40625 L 407.953125 398.40625 L 407.953125 334.679688 L 435.90625 334.679688 C 442.070312 334.679688 447.449219 335.570312 452.015625 337.347656 C 456.582031 339.125 460.347656 341.503906 463.316406 344.464844 C 466.289062 347.429688 468.539062 350.820312 470.082031 354.613281 C 471.628906 358.410156 472.402344 362.382812 472.402344 366.539062 C 472.402344 370.695312 471.628906 374.667969 470.082031 378.464844 M 501.785156 338.652344 C 498.636719 332.730469 494.546875 327.394531 489.484375 322.664062 C 483.3125 316.910156 475.78125 312.402344 466.878906 309.132812 C 457.976562 305.863281 447.941406 304.242188 436.789062 304.242188 L 372.710938 304.242188 L 372.710938 428.839844 L 436.789062 428.839844 C 447.941406 428.839844 457.941406 427.214844 466.78125 423.953125 C 475.625 420.6875 483.164062 416.203125 489.386719 410.511719 C 494.503906 405.832031 498.628906 400.519531 501.777344 394.605469 Z M 501.785156 338.652344 "/></clipPath><clipPath id="93bbf17abe"><path d="M 685.792969 304.105469 L 802.414062 304.105469 L 802.414062 428.980469 L 685.792969 428.980469 Z M 685.792969 304.105469 "/></clipPath><clipPath id="faf91a3805"><path d="M 711.425781 304.242188 L 685.820312 334.679688 L 724.648438 334.679688 L 724.648438 428.839844 L 759.890625 428.839844 L 759.890625 334.679688 L 802.101562 334.679688 L 802.101562 304.242188 Z M 711.425781 304.242188 "/></clipPath><clipPath id="8ee394cda8"><path d="M 501.578125 304.105469 L 711.59375 304.105469 L 711.59375 428.980469 L 501.578125 428.980469 Z M 501.578125 304.105469 "/></clipPath><clipPath id="a056b81c1f"><path d="M 586.085938 404.023438 L 535.804688 404.023438 L 535.804688 379.476562 L 565.214844 379.476562 L 565.214844 353.617188 L 535.804688 353.617188 L 535.804688 329.0625 L 586.085938 329.0625 L 617.609375 366.554688 Z M 659.039062 366.539062 L 659.03125 366.53125 L 711.425781 304.242188 L 670.003906 304.242188 L 638.316406 341.910156 L 606.636719 304.242188 L 501.785156 304.242188 L 501.785156 428.839844 L 606.636719 428.839844 L 638.324219 391.175781 L 670.011719 428.839844 L 711.433594 428.839844 L 659.03125 366.554688 Z M 659.039062 366.539062 "/></clipPath><clipPath id="ff99eb6b97"><path d="M 787.09375 476.261719 L 809.226562 476.261719 L 809.226562 479.464844 L 787.09375 479.464844 Z M 787.09375 479.464844 L 790.378906 479.464844 L 790.378906 488.988281 L 787.09375 488.988281 Z M 787.09375 488.988281 L 806.863281 488.988281 L 806.863281 492.191406 L 787.09375 492.191406 Z M 787.09375 492.191406 L 790.378906 492.191406 L 790.378906 502.566406 L 787.09375 502.566406 Z M 787.09375 502.566406 L 809.136719 502.566406 L 809.136719 505.765625 L 787.09375 505.765625 Z M 787.09375 502.566406 "/></clipPath><clipPath id="97ef049361"><path d="M 814.421875 476.125 L 844.199219 476.125 L 844.199219 505.902344 L 814.421875 505.902344 Z M 814.421875 476.125 "/></clipPath><clipPath id="9fb9cd78b6"><path d="M 843.738281 476.261719 L 839.570312 476.261719 L 829.585938 488.675781 L 819.042969 476.261719 L 814.746094 476.261719 L 826.976562 490.585938 L 814.488281 505.765625 L 818.578125 505.765625 L 828.996094 492.957031 L 839.824219 505.765625 L 844.167969 505.765625 L 831.484375 490.902344 Z M 843.738281 476.261719 "/></clipPath><clipPath id="e72639e392"><path d="M 847.03125 476.261719 L 871.773438 476.261719 L 871.773438 479.464844 L 847.03125 479.464844 Z M 857.570312 479.464844 L 860.855469 479.464844 L 860.855469 505.765625 L 857.570312 505.765625 Z M 857.570312 479.464844 "/></clipPath><clipPath id="229c1a56df"><path d="M 878.3125 476.125 L 904.332031 476.125 L 904.332031 505.902344 L 878.3125 505.902344 Z M 878.3125 476.125 "/></clipPath><clipPath id="22e2880761"><path d="M 881.636719 479.464844 L 892.511719 479.464844 C 893.75 479.464844 894.875 479.71875 895.886719 480.222656 C 896.898438 480.726562 897.703125 481.414062 898.289062 482.285156 C 898.871094 483.15625 899.171875 484.121094 899.171875 485.195312 C 899.171875 486.320312 898.886719 487.324219 898.332031 488.210938 C 897.777344 489.09375 896.996094 489.800781 896.015625 490.316406 C 895.03125 490.835938 893.90625 491.097656 892.640625 491.097656 L 881.636719 491.097656 Z M 897.84375 493.101562 C 899.324219 492.296875 900.492188 491.21875 901.363281 489.851562 C 902.230469 488.488281 902.667969 486.917969 902.667969 485.148438 C 902.667969 483.460938 902.246094 481.953125 901.398438 480.621094 C 900.550781 479.285156 899.433594 478.226562 898.023438 477.441406 C 896.613281 476.652344 895.039062 476.261719 893.269531 476.261719 L 878.34375 476.261719 L 878.34375 505.765625 L 881.628906 505.765625 L 881.628906 494.300781 L 892.023438 494.300781 L 900.175781 505.765625 L 904.226562 505.765625 L 895.789062 493.910156 C 896.511719 493.714844 897.199219 493.453125 897.84375 493.101562 "/></clipPath><clipPath id="69a7f222d8"><path d="M 908.523438 476.125 L 939.601562 476.125 L 939.601562 505.902344 L 908.523438 505.902344 Z M 908.523438 476.125 "/></clipPath><clipPath id="1839878a88"><path d="M 917.074219 494.726562 L 921.507812 485.03125 C 921.875 484.242188 922.175781 483.574219 922.414062 483.027344 L 923.089844 481.488281 C 923.300781 481.011719 923.515625 480.492188 923.742188 479.929688 L 923.90625 479.496094 L 924.117188 479.605469 C 924.386719 480.296875 924.597656 480.808594 924.816406 481.28125 L 925.511719 482.839844 C 925.765625 483.402344 926.03125 484.0625 926.316406 484.820312 L 930.835938 494.726562 Z M 935.878906 505.773438 L 939.542969 505.773438 L 926.140625 476.261719 L 922.054688 476.261719 L 908.570312 505.765625 L 912.027344 505.765625 L 915.613281 497.929688 L 932.300781 497.929688 Z M 935.878906 505.773438 "/></clipPath><clipPath id="0ce2fafb1e"><path d="M 812.636719 304.203125 L 1067.347656 304.203125 L 1067.347656 428.96875 L 812.636719 428.96875 Z M 812.636719 304.203125 "/></clipPath><clipPath id="916ffb4415"><path d="M 975.273438 384.519531 L 985.234375 363.335938 C 986.539062 360.488281 987.722656 357.847656 988.796875 355.417969 L 991.820312 348.300781 C 992.308594 347.117188 992.765625 345.929688 993.199219 344.730469 L 994.308594 347.941406 C 995.132812 350.25 996.085938 352.65625 997.160156 355.148438 C 998.230469 357.636719 999.410156 360.367188 1000.714844 363.335938 L 1010.734375 384.519531 Z M 891.972656 354.976562 C 890.546875 357.234375 888.558594 358.949219 886.007812 360.136719 C 883.460938 361.320312 880.640625 361.921875 877.554688 361.921875 L 845.867188 361.921875 L 845.867188 332.542969 L 876.84375 332.542969 C 880.046875 332.542969 882.988281 333.074219 885.65625 334.148438 C 888.328125 335.21875 890.402344 336.816406 891.890625 338.957031 C 893.375 341.09375 894.117188 343.703125 894.117188 346.785156 C 894.117188 349.988281 893.402344 352.71875 891.980469 354.976562 M 1008.902344 304.246094 L 978.289062 304.246094 L 926.113281 414.929688 L 903.515625 382.957031 C 904.429688 382.558594 905.328125 382.125 906.214844 381.667969 C 913.332031 377.992188 918.941406 372.945312 923.035156 366.53125 C 927.132812 360.121094 929.179688 352.769531 929.179688 344.460938 C 929.179688 336.148438 927.28125 329.03125 923.480469 323.101562 C 919.675781 317.167969 914.222656 312.539062 907.105469 309.21875 C 899.988281 305.894531 891.207031 304.238281 880.757812 304.238281 L 812.765625 304.238281 L 812.765625 428.84375 L 845.867188 428.84375 L 845.867188 387.1875 L 866.585938 387.1875 L 895.714844 428.84375 L 954.4375 428.84375 L 963.558594 409.441406 L 1022.515625 409.441406 L 1031.6875 428.84375 L 1067.292969 428.84375 Z M 1008.902344 304.246094 "/></clipPath><clipPath id="5707acc8a4"><path d="M 1039 303.683594 L 1061 303.683594 L 1061 324.910156 L 1039 324.910156 Z M 1039 303.683594 "/></clipPath><clipPath id="ee7adb38f4"><path d="M 1057.652344 318.683594 C 1056.835938 319.988281 1055.765625 321.03125 1054.4375 321.808594 C 1053.109375 322.589844 1051.648438 322.972656 1050.035156 322.972656 C 1048.390625 322.972656 1046.898438 322.582031 1045.5625 321.808594 C 1044.230469 321.039062 1043.15625 319.988281 1042.347656 318.660156 C 1041.535156 317.332031 1041.140625 315.886719 1041.140625 314.304688 C 1041.140625 312.691406 1041.550781 311.234375 1042.371094 309.921875 C 1043.1875 308.609375 1044.265625 307.574219 1045.609375 306.796875 C 1046.953125 306.015625 1048.421875 305.632812 1050.035156 305.632812 C 1051.648438 305.632812 1053.109375 306.023438 1054.4375 306.796875 C 1055.765625 307.566406 1056.828125 308.609375 1057.652344 309.921875 C 1058.480469 311.234375 1058.882812 312.691406 1058.882812 314.304688 C 1058.882812 315.914062 1058.472656 317.378906 1057.652344 318.683594 M 1059.867188 310.222656 C 1059.304688 308.960938 1058.53125 307.851562 1057.542969 306.894531 C 1056.550781 305.933594 1055.417969 305.183594 1054.144531 304.636719 C 1052.871094 304.085938 1051.496094 303.808594 1050.035156 303.808594 C 1048.570312 303.808594 1047.191406 304.082031 1045.886719 304.613281 C 1044.582031 305.144531 1043.449219 305.902344 1042.488281 306.894531 C 1041.527344 307.882812 1040.765625 309 1040.1875 310.246094 C 1039.609375 311.492188 1039.316406 312.847656 1039.316406 314.304688 C 1039.316406 316.214844 1039.796875 317.976562 1040.757812 319.566406 C 1041.714844 321.15625 1043.015625 322.433594 1044.65625 323.378906 C 1046.300781 324.324219 1048.089844 324.796875 1050.042969 324.796875 C 1051.472656 324.796875 1052.824219 324.53125 1054.097656 324 C 1055.375 323.46875 1056.515625 322.71875 1057.519531 321.742188 C 1058.523438 320.769531 1059.304688 319.648438 1059.867188 318.390625 C 1060.429688 317.128906 1060.707031 315.765625 1060.707031 314.308594 C 1060.707031 312.855469 1060.421875 311.492188 1059.867188 310.230469 "/></clipPath><clipPath id="a41bce3c28"><path d="M 1046.121094 308.34375 L 1054.925781 308.34375 L 1054.925781 319.734375 L 1046.121094 319.734375 Z M 1046.121094 308.34375 "/></clipPath><clipPath id="43a985069d"><path d="M 1050.214844 313.933594 L 1048.113281 313.933594 L 1048.113281 310.148438 L 1050.304688 310.148438 C 1051.03125 310.148438 1051.625 310.3125 1052.082031 310.648438 C 1052.539062 310.988281 1052.765625 311.460938 1052.765625 312.066406 C 1052.765625 312.617188 1052.523438 313.066406 1052.058594 313.410156 C 1051.59375 313.753906 1050.972656 313.933594 1050.214844 313.933594 M 1053.339844 314.59375 C 1054.113281 313.941406 1054.503906 313.082031 1054.503906 312.015625 C 1054.503906 310.980469 1054.144531 310.140625 1053.433594 309.480469 C 1052.71875 308.820312 1051.796875 308.496094 1050.671875 308.496094 L 1046.335938 308.496094 L 1046.335938 319.636719 L 1048.113281 319.636719 L 1048.113281 315.578125 L 1050.621094 315.578125 C 1050.703125 315.578125 1050.785156 315.570312 1050.867188 315.570312 L 1052.945312 319.644531 L 1054.855469 319.644531 L 1052.554688 315.121094 C 1052.824219 314.976562 1053.078125 314.8125 1053.328125 314.601562 "/></clipPath></defs><g id="f790e48440"><rect x="0" width="1440" y="0" height="809.999993" style="fill:#ffffff;fill-opacity:1;stroke:none;"/><rect x="0" width="1440" y="0" height="809.999993" style="fill:#ffffff;fill-opacity:1;stroke:none;"/><g clip-rule="nonzero" clip-path="url(#9714e36559)"><g clip-rule="nonzero" clip-path="url(#449127a7f0)"><path style=" stroke:none;fill-rule:nonzero;fill:#e40520;fill-opacity:1;" d="M 500.6875 476.261719 L 530.023438 476.261719 L 530.023438 505.714844 L 500.6875 505.714844 Z M 500.6875 476.261719 "/></g></g><g clip-rule="nonzero" clip-path="url(#8c8dd6fca1)"><g clip-rule="nonzero" clip-path="url(#f97f1f16fc)"><path style=" stroke:none;fill-rule:nonzero;fill:#e40520;fill-opacity:1;" d="M 534.152344 472.21875 L 675.46875 472.21875 L 675.46875 509.941406 L 534.152344 509.941406 Z M 534.152344 472.21875 "/></g></g><g clip-rule="nonzero" clip-path="url(#4df47880a6)"><g clip-rule="nonzero" clip-path="url(#310e390f89)"><path style=" stroke:none;fill-rule:nonzero;fill:#e40520;fill-opacity:1;" d="M 534.152344 472.21875 L 675.46875 472.21875 L 675.46875 509.941406 L 534.152344 509.941406 Z M 534.152344 472.21875 "/></g></g><g clip-rule="nonzero" clip-path="url(#85aea921f0)"><g clip-rule="nonzero" clip-path="url(#05c61f9900)"><path style=" stroke:none;fill-rule:nonzero;fill:#e40520;fill-opacity:1;" d="M 534.152344 472.21875 L 675.46875 472.21875 L 675.46875 509.941406 L 534.152344 509.941406 Z M 534.152344 472.21875 "/></g></g><g clip-rule="nonzero" clip-path="url(#2da3dc399d)"><path style=" stroke:none;fill-rule:nonzero;fill:#e40520;fill-opacity:1;" d="M 534.152344 472.21875 L 675.46875 472.21875 L 675.46875 509.941406 L 534.152344 509.941406 Z M 534.152344 472.21875 "/></g><g clip-rule="nonzero" clip-path="url(#16e3d24bbd)"><g clip-rule="nonzero" clip-path="url(#8b5525e89e)"><path style=" stroke:none;fill-rule:nonzero;fill:#e40520;fill-opacity:1;" d="M 680.707031 476.261719 L 706.585938 476.261719 L 706.585938 505.78125 L 680.707031 505.78125 Z M 680.707031 476.261719 "/></g></g><g clip-rule="nonzero" clip-path="url(#a604f494fd)"><path style=" stroke:none;fill-rule:nonzero;fill:#e40520;fill-opacity:1;" d="M 714.339844 476.261719 L 731.414062 476.261719 L 731.414062 505.734375 L 714.339844 505.734375 Z M 714.339844 476.261719 "/></g><g clip-rule="nonzero" clip-path="url(#c7ef0f8ea4)"><path style=" stroke:none;fill-rule:nonzero;fill:#e40520;fill-opacity:1;" d="M 741.359375 476.261719 L 763.488281 476.261719 L 763.488281 505.738281 L 741.359375 505.738281 Z M 741.359375 476.261719 "/></g><g clip-rule="nonzero" clip-path="url(#b68df9c4cf)"><g clip-rule="nonzero" clip-path="url(#c4730d599d)"><path style=" stroke:none;fill-rule:nonzero;fill:#1d327b;fill-opacity:1;" d="M 368.960938 300.492188 L 806.023438 300.492188 L 806.023438 432.59375 L 368.960938 432.59375 Z M 368.960938 300.492188 "/></g></g><g clip-rule="nonzero" clip-path="url(#93bbf17abe)"><g clip-rule="nonzero" clip-path="url(#faf91a3805)"><path style=" stroke:none;fill-rule:nonzero;fill:#1d327b;fill-opacity:1;" d="M 368.960938 300.492188 L 806.023438 300.492188 L 806.023438 432.59375 L 368.960938 432.59375 Z M 368.960938 300.492188 "/></g></g><g clip-rule="nonzero" clip-path="url(#8ee394cda8)"><g clip-rule="nonzero" clip-path="url(#a056b81c1f)"><path style=" stroke:none;fill-rule:nonzero;fill:#e40520;fill-opacity:1;" d="M 368.960938 300.492188 L 806.023438 300.492188 L 806.023438 432.59375 L 368.960938 432.59375 Z M 368.960938 300.492188 "/></g></g><g clip-rule="nonzero" clip-path="url(#ff99eb6b97)"><path style=" stroke:none;fill-rule:nonzero;fill:#e40520;fill-opacity:1;" d="M 783.34375 472.511719 L 943.359375 472.511719 L 943.359375 509.515625 L 783.34375 509.515625 Z M 783.34375 472.511719 "/></g><g clip-rule="nonzero" clip-path="url(#97ef049361)"><g clip-rule="nonzero" clip-path="url(#9fb9cd78b6)"><path style=" stroke:none;fill-rule:nonzero;fill:#e40520;fill-opacity:1;" d="M 783.34375 472.511719 L 943.359375 472.511719 L 943.359375 509.515625 L 783.34375 509.515625 Z M 783.34375 472.511719 "/></g></g><g clip-rule="nonzero" clip-path="url(#e72639e392)"><path style=" stroke:none;fill-rule:nonzero;fill:#e40520;fill-opacity:1;" d="M 783.34375 472.511719 L 943.359375 472.511719 L 943.359375 509.515625 L 783.34375 509.515625 Z M 783.34375 472.511719 "/></g><g clip-rule="nonzero" clip-path="url(#229c1a56df)"><g clip-rule="nonzero" clip-path="url(#22e2880761)"><path style=" stroke:none;fill-rule:nonzero;fill:#e40520;fill-opacity:1;" d="M 783.34375 472.511719 L 943.359375 472.511719 L 943.359375 509.515625 L 783.34375 509.515625 Z M 783.34375 472.511719 "/></g></g><g clip-rule="nonzero" clip-path="url(#69a7f222d8)"><g clip-rule="nonzero" clip-path="url(#1839878a88)"><path style=" stroke:none;fill-rule:nonzero;fill:#e40520;fill-opacity:1;" d="M 783.34375 472.511719 L 943.359375 472.511719 L 943.359375 509.515625 L 783.34375 509.515625 Z M 783.34375 472.511719 "/></g></g><g clip-rule="nonzero" clip-path="url(#0ce2fafb1e)"><g clip-rule="nonzero" clip-path="url(#916ffb4415)"><path style=" stroke:none;fill-rule:nonzero;fill:#1d327b;fill-opacity:1;" d="M 809.015625 300.058594 L 1070.972656 300.058594 L 1070.972656 432.59375 L 809.015625 432.59375 Z M 809.015625 300.058594 "/></g></g><g clip-rule="nonzero" clip-path="url(#5707acc8a4)"><g clip-rule="nonzero" clip-path="url(#ee7adb38f4)"><path style=" stroke:none;fill-rule:nonzero;fill:#1d327b;fill-opacity:1;" d="M 809.015625 300.058594 L 1070.972656 300.058594 L 1070.972656 432.59375 L 809.015625 432.59375 Z M 809.015625 300.058594 "/></g></g><g clip-rule="nonzero" clip-path="url(#a41bce3c28)"><g clip-rule="nonzero" clip-path="url(#43a985069d)"><path style=" stroke:none;fill-rule:nonzero;fill:#1d327b;fill-opacity:1;" d="M 809.015625 300.058594 L 1070.972656 300.058594 L 1070.972656 432.59375 L 809.015625 432.59375 Z M 809.015625 300.058594 "/></g></g></g></svg>