<svg xmlns="http://www.w3.org/2000/svg" xmlns:xlink="http://www.w3.org/1999/xlink" width="1920" zoomAndPan="magnify" viewBox="0 0 1440 809.999993" height="1080" preserveAspectRatio="xMidYMid meet" version="1.2"><defs><clipPath id="7a4f6904d8"><path d="M 501.515625 475.488281 L 530.96875 475.488281 L 530.96875 505 L 501.515625 505 Z M 501.515625 475.488281 "/></clipPath><clipPath id="f3a8222ff6"><path d="M 526.527344 494.855469 C 525.980469 496.242188 525.171875 497.464844 524.105469 498.5 C 523.039062 499.535156 521.726562 500.34375 520.183594 500.921875 C 518.636719 501.5 516.867188 501.785156 514.875 501.785156 L 504.800781 501.785156 L 504.800781 478.691406 L 514.882812 478.691406 C 516.875 478.691406 518.644531 478.984375 520.191406 479.578125 C 521.734375 480.167969 523.039062 480.980469 524.113281 482.019531 C 525.1875 483.0625 525.988281 484.277344 526.535156 485.667969 C 527.082031 487.054688 527.359375 488.582031 527.359375 490.242188 C 527.359375 491.929688 527.089844 493.464844 526.535156 494.855469 M 526.640625 479.765625 C 525.261719 478.429688 523.601562 477.378906 521.667969 476.621094 C 519.734375 475.863281 517.527344 475.488281 515.089844 475.488281 L 501.515625 475.488281 L 501.515625 504.992188 L 515.089844 504.992188 C 517.535156 504.992188 519.726562 504.609375 521.667969 503.855469 C 523.609375 503.097656 525.269531 502.054688 526.640625 500.734375 C 528.011719 499.414062 529.0625 497.859375 529.785156 496.078125 C 530.503906 494.292969 530.855469 492.347656 530.855469 490.242188 C 530.855469 488.164062 530.496094 486.230469 529.785156 484.445312 C 529.070312 482.660156 528.019531 481.097656 526.640625 479.765625 "/></clipPath><clipPath id="d95045492c"><path d="M 538.667969 475.421875 L 564.75 475.421875 L 564.75 505 L 538.667969 505 Z M 538.667969 475.421875 "/></clipPath><clipPath id="ee3203228d"><path d="M 542.019531 478.695312 L 552.894531 478.695312 C 554.132812 478.695312 555.257812 478.949219 556.269531 479.453125 C 557.28125 479.957031 558.085938 480.644531 558.667969 481.515625 C 559.253906 482.386719 559.554688 483.351562 559.554688 484.425781 C 559.554688 485.550781 559.269531 486.554688 558.714844 487.441406 C 558.160156 488.324219 557.378906 489.03125 556.398438 489.546875 C 555.414062 490.066406 554.289062 490.328125 553.023438 490.328125 L 542.019531 490.328125 Z M 558.226562 492.332031 C 559.703125 491.527344 560.875 490.449219 561.742188 489.082031 C 562.613281 487.71875 563.050781 486.148438 563.050781 484.378906 C 563.050781 482.691406 562.628906 481.183594 561.78125 479.851562 C 560.933594 478.515625 559.816406 477.457031 558.40625 476.671875 C 556.996094 475.882812 555.414062 475.492188 553.644531 475.492188 L 538.734375 475.492188 L 538.734375 504.988281 L 542.019531 504.988281 L 542.019531 493.53125 L 552.414062 493.53125 L 560.566406 504.988281 L 564.609375 504.988281 L 556.171875 493.132812 C 556.890625 492.9375 557.582031 492.675781 558.226562 492.324219 "/></clipPath><clipPath id="189d77eda8"><path d="M 570.203125 475.125 L 604.242188 475.125 L 604.242188 505.480469 L 570.203125 505.480469 Z M 570.203125 475.125 "/></clipPath><clipPath id="77a11d3e82"><path d="M 599.746094 495.023438 C 599.085938 496.46875 598.148438 497.730469 596.941406 498.796875 C 595.734375 499.859375 594.300781 500.691406 592.644531 501.285156 C 590.988281 501.878906 589.171875 502.171875 587.207031 502.171875 C 585.242188 502.171875 583.425781 501.878906 581.769531 501.285156 C 580.113281 500.691406 578.6875 499.867188 577.488281 498.796875 C 576.285156 497.722656 575.371094 496.46875 574.726562 495.023438 C 574.082031 493.574219 573.757812 492.007812 573.757812 490.320312 C 573.757812 488.601562 574.082031 487.027344 574.726562 485.582031 C 575.371094 484.132812 576.292969 482.871094 577.488281 481.808594 C 578.679688 480.742188 580.105469 479.902344 581.769531 479.300781 C 583.433594 478.703125 585.242188 478.394531 587.207031 478.394531 C 589.171875 478.394531 590.988281 478.695312 592.644531 479.300781 C 594.300781 479.910156 595.734375 480.742188 596.941406 481.808594 C 598.148438 482.871094 599.085938 484.132812 599.746094 485.582031 C 600.40625 487.027344 600.738281 488.609375 600.738281 490.320312 C 600.738281 492.007812 600.40625 493.574219 599.746094 495.023438 M 599.347656 479.511719 C 597.835938 478.148438 596.050781 477.089844 593.992188 476.332031 C 591.9375 475.574219 589.679688 475.191406 587.207031 475.191406 C 584.761719 475.191406 582.511719 475.574219 580.464844 476.332031 C 578.417969 477.089844 576.632812 478.164062 575.109375 479.535156 C 573.585938 480.90625 572.417969 482.519531 571.589844 484.359375 C 570.765625 486.195312 570.347656 488.191406 570.347656 490.320312 C 570.347656 492.449219 570.757812 494.445312 571.589844 496.28125 C 572.425781 498.121094 573.59375 499.726562 575.109375 501.089844 C 576.625 502.457031 578.410156 503.511719 580.464844 504.269531 C 582.519531 505.027344 584.761719 505.410156 587.207031 505.410156 C 589.679688 505.410156 591.9375 505.027344 593.992188 504.269531 C 596.050781 503.511719 597.828125 502.449219 599.347656 501.089844 C 600.871094 499.734375 602.050781 498.128906 602.890625 496.28125 C 603.730469 494.4375 604.15625 492.457031 604.15625 490.320312 C 604.15625 488.160156 603.738281 486.15625 602.890625 484.3125 C 602.042969 482.46875 600.863281 480.871094 599.347656 479.503906 "/></clipPath><clipPath id="04199af739"><path d="M 609.546875 475.273438 L 642.996094 475.273438 L 642.996094 505.480469 L 609.546875 505.480469 Z M 609.546875 475.273438 "/></clipPath><clipPath id="9f343a4f2b"><path d="M 642.804688 490.746094 L 627.085938 490.746094 L 627.085938 493.949219 L 639.382812 493.949219 L 639.390625 494.121094 C 639.421875 495.1875 639.121094 496.214844 638.507812 497.199219 C 637.890625 498.179688 637.015625 499.042969 635.898438 499.785156 C 634.777344 500.527344 633.453125 501.113281 631.9375 501.53125 C 630.421875 501.953125 628.816406 502.164062 627.128906 502.164062 C 625.1875 502.164062 623.386719 501.894531 621.714844 501.359375 C 620.042969 500.828125 618.554688 500.046875 617.265625 499.019531 C 615.976562 497.992188 614.972656 496.738281 614.25 495.246094 C 613.53125 493.753906 613.179688 492.097656 613.179688 490.273438 C 613.179688 488.585938 613.523438 487.019531 614.214844 485.574219 C 614.902344 484.125 615.878906 482.871094 617.148438 481.824219 C 618.414062 480.773438 619.882812 479.949219 621.570312 479.355469 C 623.257812 478.761719 625.074219 478.46875 627.007812 478.46875 C 628.359375 478.46875 629.703125 478.648438 631.035156 479.019531 L 634.785156 480.449219 C 635.949219 481.042969 636.984375 481.71875 637.882812 482.476562 L 639.945312 480.074219 C 639.1875 479.207031 638.140625 478.402344 636.804688 477.675781 C 635.46875 476.949219 633.960938 476.363281 632.296875 475.925781 C 630.632812 475.492188 628.847656 475.273438 626.964844 475.273438 C 624.550781 475.273438 622.285156 475.648438 620.175781 476.394531 C 618.070312 477.136719 616.230469 478.183594 614.679688 479.535156 C 613.125 480.886719 611.898438 482.484375 611.011719 484.320312 C 610.125 486.15625 609.683594 488.152344 609.683594 490.28125 C 609.683594 492.613281 610.125 494.714844 611.011719 496.582031 C 611.898438 498.449219 613.132812 500.03125 614.722656 501.324219 C 616.3125 502.613281 618.136719 503.617188 620.207031 504.335938 C 622.277344 505.058594 624.511719 505.410156 626.925781 505.410156 C 629.207031 505.410156 631.3125 505.109375 633.25 504.503906 C 635.183594 503.894531 636.886719 503.046875 638.347656 501.953125 C 639.8125 500.859375 640.945312 499.53125 641.738281 497.96875 C 642.535156 496.410156 642.9375 494.699219 642.9375 492.847656 L 642.9375 492.277344 L 642.925781 491.820312 C 642.871094 491.257812 642.839844 490.996094 642.8125 490.738281 "/></clipPath><clipPath id="f95a8b097a"><path d="M 650.386719 475.484375 L 672.519531 475.484375 L 672.519531 478.695312 L 650.386719 478.695312 Z M 650.386719 478.695312 L 653.679688 478.695312 L 653.679688 488.21875 L 650.386719 488.21875 Z M 650.386719 488.21875 L 670.15625 488.21875 L 670.15625 491.421875 L 650.386719 491.421875 Z M 650.386719 491.421875 L 653.679688 491.421875 L 653.679688 501.789062 L 650.386719 501.789062 Z M 650.386719 501.789062 L 672.429688 501.789062 L 672.429688 504.988281 L 650.386719 504.988281 Z M 650.386719 501.789062 "/></clipPath><clipPath id="0f2776d961"><path d="M 681.535156 475.488281 L 707.417969 475.488281 L 707.417969 505 L 681.535156 505 Z M 681.535156 475.488281 "/></clipPath><clipPath id="c4318c9edd"><path d="M 684.820312 478.691406 L 695.695312 478.691406 C 696.933594 478.691406 698.058594 478.945312 699.070312 479.449219 C 700.082031 479.953125 700.886719 480.640625 701.472656 481.511719 C 702.054688 482.382812 702.355469 483.347656 702.355469 484.421875 C 702.355469 485.546875 702.070312 486.550781 701.515625 487.4375 C 700.960938 488.320312 700.179688 489.027344 699.199219 489.542969 C 698.214844 490.0625 697.089844 490.324219 695.824219 490.324219 L 684.820312 490.324219 Z M 701.027344 492.328125 C 702.507812 491.523438 703.675781 490.445312 704.546875 489.078125 C 705.417969 487.714844 705.851562 486.144531 705.851562 484.375 C 705.851562 482.6875 705.429688 481.179688 704.582031 479.847656 C 703.734375 478.511719 702.617188 477.453125 701.207031 476.667969 C 699.796875 475.878906 698.230469 475.488281 696.453125 475.488281 L 681.535156 475.488281 L 681.535156 504.992188 L 684.820312 504.992188 L 684.820312 493.527344 L 695.214844 493.527344 L 703.367188 504.992188 L 707.410156 504.992188 L 698.972656 493.136719 C 699.695312 492.941406 700.382812 492.679688 701.027344 492.328125 "/></clipPath><clipPath id="6a1ec2eb96"><path d="M 715.171875 475.488281 L 732.242188 475.488281 L 732.242188 478.734375 L 715.171875 478.734375 Z M 722.042969 478.734375 L 725.328125 478.734375 L 725.328125 501.746094 L 722.042969 501.746094 Z M 715.171875 501.746094 L 732.242188 501.746094 L 732.242188 504.992188 L 715.171875 504.992188 Z M 715.171875 501.746094 "/></clipPath><clipPath id="8315b75fd9"><path d="M 742.191406 475.488281 L 764.324219 475.488281 L 764.324219 478.691406 L 742.191406 478.691406 Z M 742.191406 478.691406 L 745.476562 478.691406 L 745.476562 488.214844 L 742.191406 488.214844 Z M 742.191406 488.214844 L 761.960938 488.214844 L 761.960938 491.417969 L 742.191406 491.417969 Z M 742.191406 491.417969 L 745.476562 491.417969 L 745.476562 501.789062 L 742.191406 501.789062 Z M 742.191406 501.789062 L 764.234375 501.789062 L 764.234375 504.992188 L 742.191406 504.992188 Z M 742.191406 501.789062 "/></clipPath><clipPath id="fdadb564b9"><path d="M 373.402344 303.332031 L 502.921875 303.332031 L 502.921875 428.207031 L 373.402344 428.207031 Z M 373.402344 303.332031 "/></clipPath><clipPath id="de6d453d1a"><path d="M 470.90625 377.695312 C 469.359375 381.5 467.101562 384.875 464.140625 387.84375 C 461.179688 390.8125 457.40625 393.183594 452.839844 394.960938 C 448.269531 396.738281 442.894531 397.632812 436.726562 397.632812 L 408.78125 397.632812 L 408.78125 333.90625 L 436.734375 333.90625 C 442.902344 333.90625 448.277344 334.796875 452.84375 336.574219 C 457.414062 338.351562 461.179688 340.730469 464.148438 343.691406 C 467.117188 346.65625 469.367188 350.042969 470.914062 353.839844 C 472.457031 357.632812 473.230469 361.609375 473.230469 365.765625 C 473.230469 369.917969 472.457031 373.894531 470.914062 377.6875 M 502.617188 337.878906 C 499.464844 331.953125 495.378906 326.621094 490.316406 321.890625 C 484.144531 316.136719 476.613281 311.628906 467.710938 308.359375 C 458.808594 305.089844 448.773438 303.46875 437.621094 303.46875 L 373.539062 303.46875 L 373.539062 428.066406 L 437.621094 428.066406 C 448.773438 428.066406 458.769531 426.441406 467.613281 423.175781 C 476.457031 419.914062 483.992188 415.429688 490.21875 409.738281 C 495.332031 405.058594 499.457031 399.746094 502.609375 393.828125 Z M 502.617188 337.878906 "/></clipPath><clipPath id="a8cf20ee27"><path d="M 686.625 303.332031 L 803 303.332031 L 803 428.207031 L 686.625 428.207031 Z M 686.625 303.332031 "/></clipPath><clipPath id="be381e40c8"><path d="M 712.253906 303.46875 L 686.652344 333.90625 L 725.476562 333.90625 L 725.476562 428.066406 L 760.71875 428.066406 L 760.71875 333.90625 L 802.929688 333.90625 L 802.929688 303.46875 Z M 712.253906 303.46875 "/></clipPath><clipPath id="2d021046e7"><path d="M 502.40625 303.332031 L 712.425781 303.332031 L 712.425781 428.207031 L 502.40625 428.207031 Z M 502.40625 303.332031 "/></clipPath><clipPath id="0d5a377b04"><path d="M 586.914062 403.25 L 536.636719 403.25 L 536.636719 378.703125 L 566.042969 378.703125 L 566.042969 352.84375 L 536.636719 352.84375 L 536.636719 328.285156 L 586.914062 328.285156 L 618.4375 365.78125 Z M 659.867188 365.765625 L 659.859375 365.757812 L 712.253906 303.46875 L 670.832031 303.46875 L 639.144531 341.132812 L 607.464844 303.46875 L 502.617188 303.46875 L 502.617188 428.066406 L 607.464844 428.066406 L 639.152344 390.402344 L 670.839844 428.066406 L 712.261719 428.066406 L 659.859375 365.78125 Z M 659.867188 365.765625 "/></clipPath><clipPath id="f6302fb0eb"><path d="M 787.921875 475.488281 L 810.054688 475.488281 L 810.054688 478.691406 L 787.921875 478.691406 Z M 787.921875 478.691406 L 791.207031 478.691406 L 791.207031 488.214844 L 787.921875 488.214844 Z M 787.921875 488.214844 L 807.691406 488.214844 L 807.691406 491.417969 L 787.921875 491.417969 Z M 787.921875 491.417969 L 791.207031 491.417969 L 791.207031 501.789062 L 787.921875 501.789062 Z M 787.921875 501.789062 L 809.964844 501.789062 L 809.964844 504.992188 L 787.921875 504.992188 Z M 787.921875 501.789062 "/></clipPath><clipPath id="316373ce05"><path d="M 815.25 475.351562 L 845 475.351562 L 845 505 L 815.25 505 Z M 815.25 475.351562 "/></clipPath><clipPath id="5fa14f64b5"><path d="M 844.570312 475.488281 L 840.398438 475.488281 L 830.417969 487.902344 L 819.871094 475.488281 L 815.574219 475.488281 L 827.808594 489.8125 L 815.320312 504.992188 L 819.40625 504.992188 L 829.824219 492.183594 L 840.65625 504.992188 L 844.996094 504.992188 L 832.316406 490.128906 Z M 844.570312 475.488281 "/></clipPath><clipPath id="19f142d8fd"><path d="M 847.863281 475.488281 L 872.605469 475.488281 L 872.605469 478.691406 L 847.863281 478.691406 Z M 858.398438 478.691406 L 861.683594 478.691406 L 861.683594 504.992188 L 858.398438 504.992188 Z M 858.398438 478.691406 "/></clipPath><clipPath id="f8f3b7e91b"><path d="M 879.140625 475.351562 L 905.160156 475.351562 L 905.160156 505 L 879.140625 505 Z M 879.140625 475.351562 "/></clipPath><clipPath id="0216db828a"><path d="M 882.46875 478.691406 L 893.34375 478.691406 C 894.578125 478.691406 895.703125 478.945312 896.71875 479.449219 C 897.730469 479.949219 898.53125 480.640625 899.117188 481.511719 C 899.703125 482.378906 900.003906 483.347656 900.003906 484.421875 C 900.003906 485.546875 899.71875 486.550781 899.164062 487.433594 C 898.605469 488.320312 897.828125 489.027344 896.84375 489.542969 C 895.863281 490.058594 894.738281 490.324219 893.46875 490.324219 L 882.46875 490.324219 Z M 898.675781 492.324219 C 900.152344 491.523438 901.320312 490.441406 902.191406 489.078125 C 903.0625 487.714844 903.496094 486.144531 903.496094 484.375 C 903.496094 482.6875 903.078125 481.179688 902.230469 479.84375 C 901.382812 478.511719 900.265625 477.453125 898.855469 476.664062 C 897.445312 475.878906 895.871094 475.488281 894.101562 475.488281 L 879.175781 475.488281 L 879.175781 504.992188 L 882.460938 504.992188 L 882.460938 493.527344 L 892.855469 493.527344 L 901.007812 504.992188 L 905.058594 504.992188 L 896.621094 493.136719 C 897.339844 492.941406 898.03125 492.679688 898.675781 492.324219 "/></clipPath><clipPath id="4048562377"><path d="M 909.351562 475.351562 L 940.429688 475.351562 L 940.429688 505 L 909.351562 505 Z M 909.351562 475.351562 "/></clipPath><clipPath id="7abb7ca7cd"><path d="M 917.90625 493.953125 L 922.335938 484.253906 C 922.703125 483.46875 923.003906 482.800781 923.246094 482.253906 L 923.917969 480.714844 C 924.128906 480.234375 924.347656 479.71875 924.570312 479.15625 L 924.738281 478.71875 L 924.945312 478.832031 C 925.21875 479.523438 925.425781 480.03125 925.644531 480.503906 L 926.34375 482.066406 C 926.597656 482.628906 926.859375 483.289062 927.144531 484.046875 L 931.667969 493.953125 Z M 936.707031 505 L 940.375 505 L 926.972656 475.488281 L 922.882812 475.488281 L 909.398438 504.992188 L 912.855469 504.992188 L 916.441406 497.15625 L 933.128906 497.15625 Z M 936.707031 505 "/></clipPath><clipPath id="2dc54b9e07"><path d="M 813.46875 303.425781 L 1068.179688 303.425781 L 1068.179688 428.195312 L 813.46875 428.195312 Z M 813.46875 303.425781 "/></clipPath><clipPath id="0a45a64bb7"><path d="M 976.105469 383.742188 L 986.0625 362.5625 C 987.367188 359.714844 988.554688 357.074219 989.625 354.644531 L 992.648438 347.527344 C 993.136719 346.339844 993.59375 345.15625 994.027344 343.957031 L 995.140625 347.164062 C 995.964844 349.476562 996.917969 351.882812 997.988281 354.375 C 999.0625 356.863281 1000.238281 359.59375 1001.542969 362.5625 L 1011.5625 383.742188 Z M 892.800781 354.199219 C 891.375 356.457031 889.390625 358.175781 886.839844 359.359375 C 884.289062 360.546875 881.46875 361.144531 878.386719 361.144531 L 846.699219 361.144531 L 846.699219 331.769531 L 877.675781 331.769531 C 880.875 331.769531 883.816406 332.300781 886.488281 333.375 C 889.15625 334.445312 891.234375 336.042969 892.71875 338.179688 C 894.203125 340.320312 894.945312 342.929688 894.945312 346.011719 C 894.945312 349.214844 894.234375 351.945312 892.808594 354.199219 M 1009.734375 303.472656 L 979.117188 303.472656 L 926.941406 414.15625 L 904.34375 382.183594 C 905.257812 381.785156 906.160156 381.351562 907.042969 380.894531 C 914.160156 377.21875 919.769531 372.171875 923.867188 365.757812 C 927.960938 359.347656 930.007812 351.996094 930.007812 343.6875 C 930.007812 335.375 928.113281 328.257812 924.308594 322.324219 C 920.507812 316.394531 915.054688 311.765625 907.9375 308.445312 C 900.820312 305.121094 892.035156 303.464844 881.589844 303.464844 L 813.59375 303.464844 L 813.59375 428.070312 L 846.699219 428.070312 L 846.699219 386.414062 L 867.414062 386.414062 L 896.542969 428.070312 L 955.269531 428.070312 L 964.390625 408.664062 L 1023.347656 408.664062 L 1032.519531 428.070312 L 1068.121094 428.070312 Z M 1009.734375 303.472656 "/></clipPath><clipPath id="512b4202fb"><path d="M 1040 303 L 1061.964844 303 L 1061.964844 324.136719 L 1040 324.136719 Z M 1040 303 "/></clipPath><clipPath id="3cad505f55"><path d="M 1058.484375 317.910156 C 1057.667969 319.214844 1056.59375 320.257812 1055.265625 321.035156 C 1053.9375 321.816406 1052.476562 322.199219 1050.863281 322.199219 C 1049.222656 322.199219 1047.730469 321.808594 1046.394531 321.035156 C 1045.058594 320.261719 1043.988281 319.214844 1043.175781 317.886719 C 1042.367188 316.558594 1041.96875 315.109375 1041.96875 313.527344 C 1041.96875 311.914062 1042.382812 310.460938 1043.199219 309.148438 C 1044.015625 307.835938 1045.097656 306.800781 1046.4375 306.019531 C 1047.78125 305.242188 1049.25 304.859375 1050.863281 304.859375 C 1052.476562 304.859375 1053.9375 305.25 1055.265625 306.019531 C 1056.59375 306.792969 1057.660156 307.835938 1058.484375 309.148438 C 1059.308594 310.460938 1059.714844 311.914062 1059.714844 313.527344 C 1059.714844 315.140625 1059.300781 316.601562 1058.484375 317.910156 M 1060.695312 309.449219 C 1060.132812 308.1875 1059.363281 307.078125 1058.371094 306.117188 C 1057.382812 305.160156 1056.25 304.410156 1054.972656 303.859375 C 1053.699219 303.3125 1052.328125 303.035156 1050.863281 303.035156 C 1049.402344 303.035156 1048.019531 303.304688 1046.714844 303.839844 C 1045.410156 304.371094 1044.277344 305.128906 1043.320312 306.117188 C 1042.359375 307.109375 1041.59375 308.226562 1041.015625 309.472656 C 1040.4375 310.714844 1040.144531 312.074219 1040.144531 313.527344 C 1040.144531 315.441406 1040.625 317.203125 1041.585938 318.792969 C 1042.546875 320.382812 1043.84375 321.660156 1045.488281 322.601562 C 1047.128906 323.546875 1048.921875 324.019531 1050.871094 324.019531 C 1052.304688 324.019531 1053.652344 323.757812 1054.929688 323.226562 C 1056.203125 322.695312 1057.34375 321.945312 1058.347656 320.96875 C 1059.355469 319.992188 1060.132812 318.875 1060.695312 317.617188 C 1061.257812 316.355469 1061.535156 314.992188 1061.535156 313.535156 C 1061.535156 312.082031 1061.25 310.714844 1060.695312 309.457031 "/></clipPath><clipPath id="35ec0e3356"><path d="M 1047 307.570312 L 1055.753906 307.570312 L 1055.753906 318.957031 L 1047 318.957031 Z M 1047 307.570312 "/></clipPath><clipPath id="49cc43c256"><path d="M 1051.042969 313.160156 L 1048.945312 313.160156 L 1048.945312 309.375 L 1051.132812 309.375 C 1051.863281 309.375 1052.453125 309.539062 1052.910156 309.875 C 1053.367188 310.214844 1053.59375 310.6875 1053.59375 311.292969 C 1053.59375 311.839844 1053.355469 312.289062 1052.890625 312.636719 C 1052.425781 312.980469 1051.800781 313.160156 1051.042969 313.160156 M 1054.171875 313.820312 C 1054.945312 313.167969 1055.332031 312.304688 1055.332031 311.242188 C 1055.332031 310.207031 1054.972656 309.367188 1054.261719 308.707031 C 1053.550781 308.046875 1052.625 307.722656 1051.5 307.722656 L 1047.167969 307.722656 L 1047.167969 318.859375 L 1048.945312 318.859375 L 1048.945312 314.804688 L 1051.449219 314.804688 C 1051.53125 314.804688 1051.613281 314.796875 1051.695312 314.796875 L 1053.773438 318.867188 L 1055.6875 318.867188 L 1053.382812 314.347656 C 1053.652344 314.203125 1053.910156 314.039062 1054.15625 313.828125 "/></clipPath></defs><g id="307a1db5ae"><rect x="0" width="1440" y="0" height="809.999993" style="fill:#ffffff;fill-opacity:1;stroke:none;"/><rect x="0" width="1440" y="0" height="809.999993" style="fill:#1d327b;fill-opacity:1;stroke:none;"/><g clip-rule="nonzero" clip-path="url(#7a4f6904d8)"><g clip-rule="nonzero" clip-path="url(#f3a8222ff6)"><path style=" stroke:none;fill-rule:nonzero;fill:#ffffff;fill-opacity:1;" d="M 501.515625 475.488281 L 530.851562 475.488281 L 530.851562 504.941406 L 501.515625 504.941406 Z M 501.515625 475.488281 "/></g></g><g clip-rule="nonzero" clip-path="url(#d95045492c)"><g clip-rule="nonzero" clip-path="url(#ee3203228d)"><path style=" stroke:none;fill-rule:nonzero;fill:#ffffff;fill-opacity:1;" d="M 534.984375 471.441406 L 676.296875 471.441406 L 676.296875 509.164062 L 534.984375 509.164062 Z M 534.984375 471.441406 "/></g></g><g clip-rule="nonzero" clip-path="url(#189d77eda8)"><g clip-rule="nonzero" clip-path="url(#77a11d3e82)"><path style=" stroke:none;fill-rule:nonzero;fill:#ffffff;fill-opacity:1;" d="M 534.984375 471.441406 L 676.296875 471.441406 L 676.296875 509.164062 L 534.984375 509.164062 Z M 534.984375 471.441406 "/></g></g><g clip-rule="nonzero" clip-path="url(#04199af739)"><g clip-rule="nonzero" clip-path="url(#9f343a4f2b)"><path style=" stroke:none;fill-rule:nonzero;fill:#ffffff;fill-opacity:1;" d="M 534.984375 471.441406 L 676.296875 471.441406 L 676.296875 509.164062 L 534.984375 509.164062 Z M 534.984375 471.441406 "/></g></g><g clip-rule="nonzero" clip-path="url(#f95a8b097a)"><path style=" stroke:none;fill-rule:nonzero;fill:#ffffff;fill-opacity:1;" d="M 534.984375 471.441406 L 676.296875 471.441406 L 676.296875 509.164062 L 534.984375 509.164062 Z M 534.984375 471.441406 "/></g><g clip-rule="nonzero" clip-path="url(#0f2776d961)"><g clip-rule="nonzero" clip-path="url(#c4318c9edd)"><path style=" stroke:none;fill-rule:nonzero;fill:#ffffff;fill-opacity:1;" d="M 681.535156 475.488281 L 707.417969 475.488281 L 707.417969 505.007812 L 681.535156 505.007812 Z M 681.535156 475.488281 "/></g></g><g clip-rule="nonzero" clip-path="url(#6a1ec2eb96)"><path style=" stroke:none;fill-rule:nonzero;fill:#ffffff;fill-opacity:1;" d="M 715.171875 475.488281 L 732.242188 475.488281 L 732.242188 504.960938 L 715.171875 504.960938 Z M 715.171875 475.488281 "/></g><g clip-rule="nonzero" clip-path="url(#8315b75fd9)"><path style=" stroke:none;fill-rule:nonzero;fill:#ffffff;fill-opacity:1;" d="M 742.191406 475.488281 L 764.320312 475.488281 L 764.320312 504.964844 L 742.191406 504.964844 Z M 742.191406 475.488281 "/></g><g clip-rule="nonzero" clip-path="url(#fdadb564b9)"><g clip-rule="nonzero" clip-path="url(#de6d453d1a)"><path style=" stroke:none;fill-rule:nonzero;fill:#ffffff;fill-opacity:1;" d="M 369.789062 299.71875 L 806.855469 299.71875 L 806.855469 431.820312 L 369.789062 431.820312 Z M 369.789062 299.71875 "/></g></g><g clip-rule="nonzero" clip-path="url(#a8cf20ee27)"><g clip-rule="nonzero" clip-path="url(#be381e40c8)"><path style=" stroke:none;fill-rule:nonzero;fill:#ffffff;fill-opacity:1;" d="M 369.789062 299.71875 L 806.855469 299.71875 L 806.855469 431.820312 L 369.789062 431.820312 Z M 369.789062 299.71875 "/></g></g><g clip-rule="nonzero" clip-path="url(#2d021046e7)"><g clip-rule="nonzero" clip-path="url(#0d5a377b04)"><path style=" stroke:none;fill-rule:nonzero;fill:#e40520;fill-opacity:1;" d="M 369.789062 299.71875 L 806.855469 299.71875 L 806.855469 431.820312 L 369.789062 431.820312 Z M 369.789062 299.71875 "/></g></g><g clip-rule="nonzero" clip-path="url(#f6302fb0eb)"><path style=" stroke:none;fill-rule:nonzero;fill:#ffffff;fill-opacity:1;" d="M 784.171875 471.738281 L 944.191406 471.738281 L 944.191406 508.742188 L 784.171875 508.742188 Z M 784.171875 471.738281 "/></g><g clip-rule="nonzero" clip-path="url(#316373ce05)"><g clip-rule="nonzero" clip-path="url(#5fa14f64b5)"><path style=" stroke:none;fill-rule:nonzero;fill:#ffffff;fill-opacity:1;" d="M 784.171875 471.738281 L 944.191406 471.738281 L 944.191406 508.742188 L 784.171875 508.742188 Z M 784.171875 471.738281 "/></g></g><g clip-rule="nonzero" clip-path="url(#19f142d8fd)"><path style=" stroke:none;fill-rule:nonzero;fill:#ffffff;fill-opacity:1;" d="M 784.171875 471.738281 L 944.191406 471.738281 L 944.191406 508.742188 L 784.171875 508.742188 Z M 784.171875 471.738281 "/></g><g clip-rule="nonzero" clip-path="url(#f8f3b7e91b)"><g clip-rule="nonzero" clip-path="url(#0216db828a)"><path style=" stroke:none;fill-rule:nonzero;fill:#ffffff;fill-opacity:1;" d="M 784.171875 471.738281 L 944.191406 471.738281 L 944.191406 508.742188 L 784.171875 508.742188 Z M 784.171875 471.738281 "/></g></g><g clip-rule="nonzero" clip-path="url(#4048562377)"><g clip-rule="nonzero" clip-path="url(#7abb7ca7cd)"><path style=" stroke:none;fill-rule:nonzero;fill:#ffffff;fill-opacity:1;" d="M 784.171875 471.738281 L 944.191406 471.738281 L 944.191406 508.742188 L 784.171875 508.742188 Z M 784.171875 471.738281 "/></g></g><g clip-rule="nonzero" clip-path="url(#2dc54b9e07)"><g clip-rule="nonzero" clip-path="url(#0a45a64bb7)"><path style=" stroke:none;fill-rule:nonzero;fill:#ffffff;fill-opacity:1;" d="M 809.84375 299.285156 L 1071.804688 299.285156 L 1071.804688 431.820312 L 809.84375 431.820312 Z M 809.84375 299.285156 "/></g></g><g clip-rule="nonzero" clip-path="url(#512b4202fb)"><g clip-rule="nonzero" clip-path="url(#3cad505f55)"><path style=" stroke:none;fill-rule:nonzero;fill:#ffffff;fill-opacity:1;" d="M 809.84375 299.285156 L 1071.804688 299.285156 L 1071.804688 431.820312 L 809.84375 431.820312 Z M 809.84375 299.285156 "/></g></g><g clip-rule="nonzero" clip-path="url(#35ec0e3356)"><g clip-rule="nonzero" clip-path="url(#49cc43c256)"><path style=" stroke:none;fill-rule:nonzero;fill:#ffffff;fill-opacity:1;" d="M 809.84375 299.285156 L 1071.804688 299.285156 L 1071.804688 431.820312 L 809.84375 431.820312 Z M 809.84375 299.285156 "/></g></g></g></svg>