<svg xmlns="http://www.w3.org/2000/svg" xmlns:xlink="http://www.w3.org/1999/xlink" width="1920" zoomAndPan="magnify" viewBox="0 0 1440 809.999993" height="1080" preserveAspectRatio="xMidYMid meet" version="1.2"><defs><clipPath id="a34a29fbdf"><path d="M 568.527344 150.144531 L 872 150.144531 L 872 659.855469 L 568.527344 659.855469 Z M 568.527344 150.144531 "/></clipPath><clipPath id="cea393d01e"><path d="M 811.128906 454.886719 L 811.128906 577.128906 L 751.4375 577.128906 L 751.4375 505.636719 L 688.558594 505.636719 L 688.558594 577.128906 L 628.867188 577.128906 L 628.867188 454.886719 L 720.019531 378.25 Z M 720 277.519531 L 719.976562 277.539062 L 568.527344 150.144531 L 568.527344 250.855469 L 660.109375 327.894531 L 568.527344 404.929688 L 568.527344 659.851562 L 871.46875 659.851562 L 871.46875 404.929688 L 779.894531 327.894531 L 871.46875 250.855469 L 871.46875 150.144531 L 720.019531 277.53125 Z M 720 277.519531 "/></clipPath></defs><g id="e92fb127f0"><rect x="0" width="1440" y="0" height="809.999993" style="fill:#ffffff;fill-opacity:1;stroke:none;"/><g clip-rule="nonzero" clip-path="url(#a34a29fbdf)"><g clip-rule="nonzero" clip-path="url(#cea393d01e)"><path style=" stroke:none;fill-rule:nonzero;fill:#e40520;fill-opacity:1;" d="M 568.527344 150.144531 L 871.355469 150.144531 L 871.355469 659.855469 L 568.527344 659.855469 Z M 568.527344 150.144531 "/></g></g></g></svg>